<?xml version="1.0" encoding="UTF-8"?>
<svg version="1.1" xmlns="http://www.w3.org/2000/svg" width="500" height="500">
<path d="M0 0 C1.17108559 -0.00087616 1.17108559 -0.00087616 2.36582947 -0.00177002 C4.94721899 0.00101745 7.52745473 0.03213943 10.10864258 0.06347656 C11.89796823 0.07093662 13.68730205 0.07663067 15.47663879 0.08062744 C20.18686468 0.09590232 24.89659742 0.13519994 29.60662842 0.17944336 C34.41257048 0.2203562 39.2185922 0.23862992 44.0246582 0.25878906 C53.45521345 0.30169252 62.88540264 0.36996617 72.31567383 0.45410156 C75.43341788 6.40497874 77.89420956 12.39238682 80.15942383 18.71191406 C80.52089508 19.70741272 80.88236633 20.70291138 81.25479126 21.72857666 C82.03626323 23.88201122 82.81562113 26.03621391 83.59307861 28.19110107 C85.7066265 34.04806925 87.83657395 39.89907886 89.96411133 45.75097656 C90.62538528 47.57180252 90.62538528 47.57180252 91.30001831 49.42941284 C95.95943626 62.24940406 100.6949201 75.04087086 105.44067383 87.82910156 C106.28520209 90.10618417 107.1296845 92.38328378 107.97412109 94.66040039 C109.22377091 98.02995589 110.47352024 101.3994743 111.72358704 104.76887512 C115.74132599 115.59854091 119.74928023 126.43181024 123.75317383 137.26660156 C124.09321442 138.18664978 124.433255 139.106698 124.78359985 140.05462646 C131.19030623 157.39086457 137.57636132 174.73469527 143.96273804 192.07843018 C151.30532146 212.01699652 158.67431264 231.94567552 166.05908203 251.86865234 C166.87900113 254.08072416 167.69890683 256.29280095 168.51879883 258.50488281 C168.91979294 259.5867688 169.32078705 260.66865479 169.7339325 261.7833252 C172.46930485 269.16523106 175.1989519 276.54923446 177.92504883 283.93457031 C178.29471771 284.9357338 178.6643866 285.93689728 179.04525757 286.96839905 C180.83403804 291.8132905 182.62136556 296.65870887 184.40600586 301.50512695 C187.58024775 310.11651599 190.7828342 318.71457664 194.07348633 327.28222656 C194.65172446 328.79471587 195.22985296 330.30724709 195.80786133 331.81982422 C196.86080893 334.57441036 197.92752998 337.32305749 199.00317383 340.06884766 C199.45950195 341.26074707 199.91583008 342.45264648 200.38598633 343.68066406 C200.98564209 345.22101318 200.98564209 345.22101318 201.59741211 346.79248047 C202.33795402 349.53666399 202.30829796 350.83235554 201.31567383 353.45410156 C197.44632189 352.86271589 194.60011718 351.71179378 191.20239258 349.78613281 C190.21440674 349.22998291 189.2264209 348.67383301 188.20849609 348.10083008 C187.15073975 347.49553467 186.0929834 346.89023926 185.00317383 346.26660156 C183.89449951 345.63874756 182.7858252 345.01089355 181.64355469 344.36401367 C172.18601725 338.99216458 162.78865732 333.51714177 153.40551758 328.01660156 C147.09996933 324.32196828 140.77270882 320.66561109 134.44067383 317.01660156 C132.84328369 316.09584839 132.84328369 316.09584839 131.21362305 315.15649414 C127.91452975 313.25530911 124.61510508 311.3547 121.31567383 309.45410156 C117.11936072 307.03626494 112.92347099 304.61769495 108.72796631 302.19845581 C107.04469161 301.22803684 105.36109496 300.25817638 103.67749023 299.28833008 C102.65445801 298.69850342 101.63142578 298.10867676 100.57739258 297.50097656 C99.67980225 296.98374023 98.78221191 296.46650391 97.85742188 295.93359375 C95.31567383 294.45410156 95.31567383 294.45410156 93.3578186 292.88291931 C88.68901535 290.6901016 84.19446398 291.06200974 79.09960938 291.11352539 C77.4013929 291.11286827 77.4013929 291.11286827 75.66886902 291.11219788 C71.92986761 291.11428649 68.19131558 291.13762184 64.45239258 291.16113281 C61.85879257 291.16672849 59.26518939 291.17099872 56.67158508 291.17399597 C50.54470427 291.18427676 44.41800867 291.20791663 38.2911976 291.23804444 C31.31421178 291.27160627 24.33721816 291.28807892 17.36017168 291.30313075 C3.01191932 291.33446684 -11.3361977 291.38721618 -25.68432617 291.45410156 C-25.89064163 292.11063217 -26.09695709 292.76716278 -26.30952454 293.44358826 C-28.26506334 299.66595885 -30.22135366 305.88809263 -32.17846394 312.10996914 C-33.18432435 315.30780427 -34.18982248 318.50575225 -35.19482422 321.70385742 C-36.35335907 325.39036552 -37.51289016 329.07655903 -38.67260742 332.76269531 C-39.02897781 333.89742783 -39.38534821 335.03216034 -39.7525177 336.20127869 C-40.72404122 339.2874088 -41.70351976 342.37091196 -42.68432617 345.45410156 C-42.96343842 346.351138 -43.24255066 347.24817444 -43.53012085 348.1723938 C-43.78750031 348.98086761 -44.04487976 349.78934143 -44.31005859 350.62231445 C-44.52909348 351.31990372 -44.74812836 352.01749298 -44.97380066 352.73622131 C-45.68432617 354.45410156 -45.68432617 354.45410156 -47.68432617 356.45410156 C-50.51056844 356.6475251 -53.23845039 356.71631367 -56.06542969 356.69702148 C-57.36556 356.699869 -57.36556 356.699869 -58.69195557 356.70277405 C-61.56580562 356.70648816 -64.43940471 356.69576941 -67.31323242 356.68457031 C-69.30338003 356.68337886 -71.2935282 356.68292528 -73.28367615 356.68318176 C-77.45754509 356.68161585 -81.63132838 356.67331733 -85.80517578 356.65991211 C-91.1679213 356.64291111 -96.53057271 356.63909801 -101.89334202 356.63985729 C-106.00327969 356.639586 -110.11319659 356.63411154 -114.22312737 356.62685585 C-116.20117981 356.62366337 -118.17923462 356.62170043 -120.15728951 356.62096214 C-122.91577327 356.61880532 -125.67415514 356.61007574 -128.43261719 356.59936523 C-129.25809555 356.59981842 -130.08357391 356.60027161 -130.93406677 356.60073853 C-136.56985182 356.56857592 -136.56985182 356.56857592 -137.68432617 355.45410156 C-137.26768947 349.0588865 -135.54114838 343.64098615 -133.28198242 337.67675781 C-132.75870361 336.26349716 -132.75870361 336.26349716 -132.22485352 334.82168579 C-131.07335717 331.71701083 -129.91000278 328.61691721 -128.74682617 325.51660156 C-127.92942281 323.31812997 -127.11295131 321.11931171 -126.29736328 318.92016602 C-124.60317107 314.35426629 -122.90498615 309.78988222 -121.20385742 305.2265625 C-117.72184589 295.87781443 -114.28470257 286.51266393 -110.84933472 277.146698 C-109.73675065 274.1141388 -108.62293513 271.08203447 -107.50878906 268.05004883 C-102.04956922 253.1912002 -96.61361082 238.32391045 -91.18432617 223.45410156 C-85.01310556 206.55226697 -78.8284985 189.65545181 -72.62182617 172.76660156 C-72.2520163 171.76029694 -71.88220642 170.75399231 -71.50119019 169.7171936 C-68.52484825 161.61873712 -65.54730365 153.52072293 -62.56970215 145.42272949 C-59.96150786 138.32922923 -57.35391765 131.23550721 -54.74682617 124.14160156 C-54.37776154 123.13753265 -54.0086969 122.13346375 -53.62844849 121.09896851 C-48.96395257 108.4073543 -44.3144082 95.71038937 -39.68122864 83.00730896 C-35.74308049 72.20991693 -31.79751879 61.41525339 -27.84484863 50.62316895 C-27.06692109 48.49886296 -26.28933686 46.37443122 -25.51208496 44.24987793 C-23.2612648 38.0983247 -21.00356959 31.94938538 -18.73492432 25.80438232 C-18.04114152 23.92214433 -17.34964851 22.03906056 -16.6605835 20.15509033 C-15.7164833 17.57529451 -14.76404193 14.9987342 -13.80932617 12.42285156 C-13.53520905 11.66817596 -13.26109192 10.91350037 -12.97866821 10.13595581 C-10.07004945 2.34905534 -8.49691591 -0.16573913 0 0 Z M31.31567383 106.45410156 C28.49647684 111.59969186 26.80817482 116.87505955 25.12036133 122.48144531 C24.66259056 123.97769188 24.66259056 123.97769188 24.1955719 125.50416565 C23.18883259 128.79844451 22.18954929 132.0949305 21.19067383 135.39160156 C19.76414876 140.07836712 18.33480381 144.76427119 16.90551758 149.45019531 C16.53594437 150.66383759 16.16637115 151.87747986 15.78559875 153.12789917 C13.24683209 161.4507525 10.66348615 169.75854125 8.051651 178.05865669 C6.6655932 182.46658439 5.28635691 186.87665605 3.90533447 191.28616333 C3.13803977 193.7288692 2.36733423 196.17050632 1.59320068 198.61105347 C0.511041 202.02468091 -0.55862174 205.44199525 -1.62573242 208.86035156 C-1.95198105 209.87778946 -2.27822968 210.89522736 -2.61436462 211.9434967 C-2.90372391 212.87834396 -3.19308319 213.81319122 -3.49121094 214.77636719 C-3.74717545 215.58771118 -4.00313995 216.39905518 -4.26686096 217.23498535 C-4.90264825 219.76433586 -4.90264825 219.76433586 -3.68432617 223.45410156 C19.74567383 223.45410156 43.17567383 223.45410156 67.31567383 223.45410156 C68.25853006 218.73982042 68.37750044 217.63051673 67.03076172 213.38745117 C66.72138672 212.39265244 66.41201172 211.3978537 66.09326172 210.37290955 C65.74513428 209.29497635 65.39700684 208.21704315 65.03833008 207.10644531 C64.50151611 205.3954641 64.50151611 205.3954641 63.95385742 203.6499176 C62.9760419 200.53991083 61.98821005 197.43330943 60.99568558 194.32797241 C59.9630568 191.0898927 58.94211097 187.84814007 57.92089844 184.60644531 C57.50460553 183.28524382 57.08829992 181.96404633 56.67198181 180.64285278 C56.46434645 179.98384098 56.25671108 179.32482918 56.04278374 178.64584732 C55.40546945 176.62515742 54.76649076 174.60499977 54.12721252 172.58493042 C51.23852362 163.44739774 48.42635775 154.28941984 45.65942383 145.11425781 C44.93022351 142.70481954 44.20097648 140.2953954 43.47167969 137.88598633 C42.42694105 134.43268797 41.38547417 130.97857799 40.35427856 127.52120972 C39.40444909 124.33958178 38.44156632 121.16218066 37.47583008 117.98535156 C37.19843994 117.04228653 36.9210498 116.0992215 36.63525391 115.12757874 C36.37260742 114.27175705 36.10996094 113.41593536 35.83935547 112.53417969 C35.50442833 111.41758972 35.50442833 111.41758972 35.16273499 110.27844238 C34.34153724 108.09501627 34.34153724 108.09501627 31.31567383 106.45410156 Z " fill="#1DBF73" transform="translate(217.684326171875,51.5458984375)"/>
</svg>
